<?xml version="1.0" encoding="UTF-8" standalone="no"?>
<svg
   xmlns:dc="http://purl.org/dc/elements/1.1/"
   xmlns:cc="http://creativecommons.org/ns#"
   xmlns:rdf="http://www.w3.org/1999/02/22-rdf-syntax-ns#"
   xmlns:svg="http://www.w3.org/2000/svg"
   xmlns="http://www.w3.org/2000/svg"
   xmlns:xlink="http://www.w3.org/1999/xlink"
   xmlns:sodipodi="http://sodipodi.sourceforge.net/DTD/sodipodi-0.dtd"
   xmlns:inkscape="http://www.inkscape.org/namespaces/inkscape"
   viewBox="0 0 14582.8 14582.8"
   version="1.1"
   id="svg35"
   sodipodi:docname="snecLogo2.svg"
   inkscape:version="1.0.1 (3bc2e813f5, 2020-09-07)"
   inkscape:export-filename="C:\Users\unkno\Downloads\snecLogo2.png"
   inkscape:export-xdpi="7.109746"
   inkscape:export-ydpi="7.109746">
  <metadata
     id="metadata39">
    <rdf:RDF>
      <cc:Work
         rdf:about="">
        <dc:format>image/svg+xml</dc:format>
        <dc:type
           rdf:resource="http://purl.org/dc/dcmitype/StillImage" />
      </cc:Work>
    </rdf:RDF>
  </metadata>
  <sodipodi:namedview
     pagecolor="#ffffff"
     bordercolor="#666666"
     borderopacity="1"
     objecttolerance="10"
     gridtolerance="10"
     guidetolerance="10"
     inkscape:pageopacity="0"
     inkscape:pageshadow="2"
     inkscape:window-width="1440"
     inkscape:window-height="837"
     id="namedview37"
     showgrid="false"
     inkscape:zoom="0.041215732"
     inkscape:cx="9027.5133"
     inkscape:cy="6544.1808"
     inkscape:window-x="1912"
     inkscape:window-y="73"
     inkscape:window-maximized="1"
     inkscape:current-layer="svg35"
     inkscape:document-rotation="0" />
  <defs
     id="defs14">
    <style
       id="style2">.cls-1{fill:#313535;}.cls-2{fill:url(#linear-gradient);}.cls-3{fill:#c1272d;}.cls-4{fill:#093948;}.cls-5{fill:url(#linear-gradient-2);}</style>
    <linearGradient
       id="linear-gradient"
       x1="2598.48"
       y1="2599.89"
       x2="11799.11"
       y2="11800.52"
       gradientUnits="userSpaceOnUse">
      <stop
         offset="0.01"
         stop-color="#313535"
         id="stop4" />
      <stop
         offset="1"
         stop-color="#0d576d"
         id="stop6" />
    </linearGradient>
    <linearGradient
       id="linear-gradient-2"
       x1="9114.25"
       y1="11503.24"
       x2="4149.9902"
       y2="2904.8899"
       gradientUnits="userSpaceOnUse"
       xlink:href="#linear-gradient">
      <stop
         offset="0.01"
         stop-color="#313535"
         id="stop9" />
      <stop
         offset="1"
         stop-color="#3cc3f0"
         id="stop11" />
    </linearGradient>
  </defs>
  <title
     id="title16">snecLogo2</title>
  <g
     id="Layer_3"
     data-name="Layer 3">
    <circle
       class="cls-1"
       cx="7291.4"
       cy="7291.4"
       r="7291.4"
       id="circle18" />
  </g>
  <g
     id="Layer_1"
     data-name="Layer 1">
    <g
       id="g3027">
      <path
         id="path3029"
         class="cls-2"
         d="M9366.17,7199.5q0-897.14-634.77-1531.9T7199.5,5032.83q-897.14,0-1531.9,634.77T5032.83,7199.5q0,897.14,634.77,1531.9t1531.9,634.77q897.14,0,1531.9-634.77T9366.17,7199.5ZM13699.5,6277V8155.88q0,101.56-67.71,194.66t-169.27,110l-1565.75,237q-160.82,457-330.08,770.18,296.22,423.18,905.6,1168,84.63,101.56,84.63,211.59t-76.17,194.66q-228.51,313.15-837.89,914.06t-795.57,600.91q-101.57,0-220.06-76.17l-1168-914.06a4829.22,4829.22,0,0,1-770.19,321.61q-135.41,1151-245.44,1574.22-59.25,237-304.69,237H6260.05q-118.5,0-207.36-71.94t-97.33-182l-237-1557.29q-414.72-135.42-761.72-313.15l-1193.36,905.6q-84.63,76.17-211.59,76.17-118.49,0-211.59-93.1Q2273.73,11499,1943.64,11042q-59.25-84.65-59.24-194.66,0-101.57,67.7-194.66,127-177.73,431.64-562.83t457-596.68q-228.53-423.18-347-837.89L944.94,8426.71q-110-16.92-177.73-105.79T699.5,8122V6243.12q0-101.56,67.71-194.66t160.81-110l1574.21-237q118.5-389.32,330.08-778.64-338.54-482.43-905.6-1168-84.63-101.57-84.63-203.13,0-84.63,76.17-194.66,220-304.68,833.66-909.83t799.8-605.14q110,0,220.06,84.63l1168,905.6a4829.22,4829.22,0,0,1,770.19-321.61q135.4-1151,245.44-1574.22,59.25-237,304.69-237H8139q118.5,0,207.36,71.94t97.33,182l237,1557.29q414.72,135.42,761.72,313.15l1201.82-905.6q76.17-76.17,203.13-76.17,110,0,211.59,84.63,1091.79,1007.16,1396.48,1438.81,59.25,67.7,59.24,186.19,0,101.57-67.7,194.66-127,177.74-431.64,562.83t-457,596.68q220.07,423.18,347,829.43l1548.83,237q110,16.92,177.73,105.79T13699.5,6277Z"
         transform="translate(91.4 182.8)" />
    </g>
  </g>
  <g
     id="Layer_2"
     data-name="Layer 2">
    <path
       class="cls-3"
       d="M11080.37,4126"
       transform="translate(91.4 182.8)"
       id="path24" />
    <path
       class="cls-3"
       d="M2874.49,10460.87"
       transform="translate(91.4 182.8)"
       id="path26" />
    <path
       class="cls-4"
       d="M7225.79,6185.5"
       transform="translate(91.4 182.8)"
       id="path28" />
    <path
       class="cls-5"
       d="m 9672.5,3588.78 c 397.034,321.726 708.982,737.9855 1094.06,1073.93 178.942,156.1102 329.05,305.8 563.4,436 212,117.83 467.51,215.53 641.07,391.78 209.26,212.48 265.73,501.63 361.81,772.55 50.08,141.19 143.07,287.5 109.39,443.51 -29.71,137.63 -162,251.71 -293.3,290.23 -140.53,41.23 -286.92,-1.8 -421.58,-44.12 -139,-43.7 -279.48,-79.9 -419.71,-119.48 -273.17,-77.11 -533.34,-200.52 -677,-457.44 -66.12,-118.23 -110.45,-247.21 -174.61,-366.49 -65.77,-122.25 -160.14,-291.16 -246.54,-399.46 -181,-226.9 -344.0371,-425.4541 -534.11,-621.71 -358.5847,-370.2493 -697.2448,-780.8488 -1140.05,-1044.65 -396.0121,-235.9242 -846.7706,-425.8242 -1307,-451.8 -934.463,-52.742 -2091.6175,-61.9392 -2740.14,612.91 -410.1916,426.8433 -738.84,1330.4074 -318.43,1747.19 617.3492,612.0226 1657.8443,366.2182 2944.9147,488.955 C 8401.7451,6463.4218 8965.6643,6492.6359 9724,6967 c 465.614,291.2569 890.833,745.7784 1046.74,1272.39 213.385,720.7577 153.126,1608.6429 -253.68,2240.73 -423.16,657.498 -1252.4072,1020.818 -2012.15,1205.64 -1334.3318,324.602 -2807.1629,171.471 -4111.6855,-257.515 -819.7187,-269.56 -1768.8899,-642.048 -2175.4284,-1403.184 -119.2754,-223.3118 -112.0208,-539.1149 12.7539,-759.401 102.9979,-181.8397 326.6754,-293.6563 532.23,-331.36 689.4259,-126.4575 2024.865,291.2269 2063.3174,405.4833 38.4525,114.2564 -1982.0452,-557.5756 -2251.3775,144.543 -108.3618,282.487 356.758,529.1027 634.533,649.0287 1646.8876,711.023 3884.5848,1089.098 5380.5471,99.205 508.6838,-336.6012 1043.2477,-1144.5592 684.24,-1697.16 -248.1824,-382.0136 -345.5651,-418.4211 -585.61,-522.33 -1196.6251,-517.9865 -2624.4235,-59.6244 -3896.4,-346.5 -511.776,-115.4235 -1082.1712,-200.1435 -1475.78,-547 -379.0344,-334.0133 -625.7823,-844.0699 -701.3086,-1343.5975 -76.9397,-508.8762 62.6671,-1051.2586 277.8546,-1518.7723 209.0895,-454.2654 535.453,-878.4851 945.424,-1164.8402 481.164,-336.0817 1082.8383,-500.7789 1665.51,-571.23 984.0127,-118.9774 2026.4136,-61.9905 2961.57,266.52 455.6502,160.0651 831.9786,497.0793 1207.2,801.13 z"
       transform="translate(91.4,182.8)"
       id="path30"
       sodipodi:nodetypes="aacccsscccccaaaaszsaaaaaaazaaasaaaaaaaaa"
       style="fill-opacity:1" />
    <path
       class="cls-3"
       d="M11080.37,1952.91"
       transform="translate(91.4 182.8)"
       id="path32" />
  </g>
</svg>
